<svg width="1728" height="701" viewBox="0 0 1728 701" fill="none" xmlns="http://www.w3.org/2000/svg">
<g clip-path="url(#clip0_408_75)">
<rect width="1728" height="701" fill="white"/>
<g clip-path="url(#clip1_408_75)">
<rect x="-131.992" y="652" width="1904.93" height="117" fill="black"/>
<rect x="-53.3418" y="-113" width="1826.28" height="117" fill="#510C76"/>
<path d="M1730.04 322.746L1721.63 319.233C1707.62 313.211 1692.9 307.691 1679.59 301.669C1656.46 291.633 1632.63 282.098 1610.21 270.556C1603.2 267.043 1596.89 266.541 1589.18 269.552C1572.36 276.578 1553.44 281.596 1535.22 287.618C1529.61 289.625 1524.01 289.625 1519.1 288.12C1507.89 285.109 1498.08 280.592 1490.37 274.069C1485.46 270.054 1480.56 266.039 1475.65 261.523C1473.55 259.516 1470.75 259.014 1467.94 260.017C1465.84 260.519 1463.74 261.021 1461.64 262.025C1444.12 267.545 1426.6 273.065 1409.78 278.585C1406.97 279.589 1403.47 280.09 1400.67 281.596C1396.46 283.603 1392.26 283.101 1388.05 281.596C1376.84 277.581 1365.63 274.57 1354.41 271.058C1349.51 269.552 1346 269.552 1341.1 271.058C1327.08 275.574 1313.07 279.589 1299.05 283.603C1291.34 285.611 1284.33 288.622 1278.03 291.633C1269.62 295.145 1261.91 298.658 1253.5 301.669C1247.19 304.178 1240.88 305.182 1233.87 305.684C1226.17 306.186 1224.76 305.182 1221.96 300.164C1221.26 298.658 1220.56 297.153 1219.86 295.647C1212.85 280.592 1206.54 265.036 1196.03 250.483C1191.83 244.461 1188.32 238.941 1183.42 232.919C1178.51 226.897 1174.31 221.377 1168 215.856C1164.5 212.846 1160.29 211.842 1155.39 211.842C1150.48 212.344 1146.27 213.347 1142.77 214.853C1134.36 218.366 1125.25 219.871 1115.44 220.875C1106.33 221.377 1106.33 221.377 1104.23 215.856C1104.23 214.853 1103.53 214.351 1103.53 213.347C1100.02 201.303 1095.82 188.758 1092.31 176.714C1089.51 167.179 1087.41 158.146 1083.2 149.113C1079 141.586 1075.49 133.557 1065.68 128.538C1057.97 124.524 1049.56 121.513 1041.15 118.502C1037.65 117.498 1034.85 118 1032.04 120.007C1004.71 139.077 978.082 159.15 952.152 179.223C947.247 182.736 943.743 186.75 940.239 191.267C932.53 201.805 923.42 211.842 911.506 220.373C898.191 229.908 885.576 239.944 872.261 249.981C862.45 257.006 851.938 264.032 842.127 271.058C837.922 273.567 833.717 275.574 829.512 278.083C825.307 280.09 820.402 280.592 815.496 278.083C809.189 275.574 802.181 273.065 795.173 270.556C790.968 269.05 786.062 267.545 781.858 266.541C779.755 266.039 778.354 266.039 776.251 267.043C775.55 267.545 774.85 268.047 773.448 268.548C762.235 276.578 748.92 283.101 738.408 292.134C735.605 294.142 734.904 294.142 730.699 293.138C729.297 292.636 727.896 292.134 726.494 291.633C704.769 284.105 683.044 276.076 661.32 268.548C650.107 264.534 640.996 259.516 634.689 251.486C628.382 243.457 619.972 235.93 612.263 228.904C610.161 226.897 607.358 225.391 604.555 223.886C597.547 219.871 594.743 219.871 587.035 223.384C570.916 230.911 557.601 240.948 545.687 251.486C542.884 253.995 540.782 256.003 538.679 259.014C532.372 266.541 526.766 274.069 520.458 281.596C516.254 286.614 512.75 291.633 508.545 296.651C506.442 299.662 502.938 302.171 499.434 303.676C492.426 307.189 486.82 307.189 479.812 303.175C476.308 301.167 473.505 299.662 470.001 297.654C462.292 292.636 454.583 288.12 446.874 283.101C434.26 275.072 421.645 267.545 410.432 258.512C405.527 253.995 398.519 253.995 392.212 258.01C390.81 259.014 388.708 260.017 387.306 261.523C380.298 267.043 373.29 273.065 366.282 278.585C354.368 289.625 342.455 300.665 330.541 311.706C324.234 317.728 315.824 319.735 305.312 318.229C296.903 317.226 289.194 314.215 281.485 310.702C271.674 306.687 261.862 303.175 252.051 300.164C232.429 294.142 212.105 287.618 193.184 280.592C185.475 277.581 179.168 274.57 172.861 270.054C162.348 263.028 153.939 255.501 145.529 247.472C139.923 241.952 134.316 236.431 128.71 230.911C124.505 227.399 121.001 226.897 116.096 230.409C109.788 234.424 103.481 238.941 97.8747 243.959C89.4651 250.984 80.3546 257.508 72.6458 265.036C67.7402 270.054 62.8346 275.072 57.2282 280.09C50.921 286.112 44.6137 291.633 37.6057 297.153C32.7001 300.665 27.7945 303.175 21.4873 305.182C6.77041 309.197 -7.24563 313.713 -21.9625 317.226L-35.9785 319.735V667H1730.04V322.746Z" fill="#030303"/>
<path d="M-35.9785 68.504V-30H1730.04V49.1017C1721.63 49.1017 1711.82 49.5992 1703.41 48.6042C1695.7 47.6092 1687.29 47.6092 1679.59 47.6092C1666.27 47.6092 1652.95 47.6092 1639.64 47.6092C1636.84 47.6092 1633.33 47.6092 1630.53 47.1117C1625.62 46.1167 1620.72 46.1167 1615.81 46.1167C1600.39 46.1167 1585.68 46.1167 1570.26 46.1167C1567.46 46.1167 1564.65 45.6192 1562.55 46.1167C1552.74 48.1067 1542.23 47.6092 1531.72 47.6092C1502.98 47.6092 1474.25 47.6092 1444.82 47.6092C1439.21 47.6092 1433.6 47.6092 1428 48.6042C1424.49 49.1017 1420.29 49.1017 1416.78 48.6042C1411.18 47.6092 1405.57 47.6092 1399.97 47.6092C1388.75 47.6092 1376.84 47.6092 1365.63 47.6092C1362.82 47.6092 1359.32 47.6092 1356.52 47.1117C1344.6 44.1267 1332.69 44.6242 1320.77 44.6242C1315.17 44.6242 1309.56 45.1217 1303.96 46.1167C1289.94 48.6042 1275.92 49.5992 1261.21 49.5992C1250.69 49.5992 1240.88 48.6042 1230.37 51.0917C1228.27 51.5892 1226.17 51.0917 1223.36 51.0917C1203.74 51.0917 1184.82 51.0917 1165.2 51.0917C1162.39 51.0917 1159.59 51.5892 1157.49 50.5942C1150.48 49.1017 1143.47 49.5992 1135.76 49.1017C1132.26 49.1017 1128.05 49.5992 1124.55 48.6042C1114.74 46.6142 1104.23 47.6092 1093.71 47.1117C1086.01 47.1117 1077.6 47.1117 1069.89 47.1117C1067.08 47.1117 1064.28 47.1117 1062.18 46.6142C1052.37 44.6242 1041.86 45.6192 1031.34 45.6192C1025.74 45.6192 1019.43 47.1117 1013.82 48.6042C1005.41 51.0917 996.303 52.5842 987.193 52.0867C983.689 52.0867 979.484 52.0867 975.98 52.0867C962.664 51.0917 950.751 54.0766 937.436 54.0766C935.333 54.0766 933.231 55.0716 931.128 55.5691C923.42 57.5591 915.01 59.0516 906.6 59.0516C903.797 59.0516 900.994 59.0516 898.891 59.5491C893.285 61.0416 887.679 60.5441 882.072 60.5441C839.323 60.5441 797.275 60.5441 754.526 60.5441C749.621 60.5441 744.715 61.0416 739.809 61.5391C730.699 62.534 720.888 63.0315 711.777 61.5391C706.171 60.5441 700.565 60.5441 694.958 60.5441C660.619 60.5441 625.579 60.5441 591.239 60.5441C575.121 60.5441 558.302 60.5441 542.183 60.5441C539.38 60.5441 535.876 60.0466 533.073 61.5391C529.569 64.0265 524.663 64.0265 520.458 64.0265C503.639 64.0265 486.119 64.0265 469.3 64.0265C465.796 64.0265 461.591 64.0265 458.087 65.519C453.882 67.509 448.977 67.509 444.071 67.509C439.866 67.509 434.961 68.0065 430.756 68.0065C420.244 69.0015 409.732 69.499 399.22 70.494C385.204 71.489 371.888 68.504 358.573 69.0015C357.872 69.0015 357.171 69.0015 356.471 68.504C351.565 67.0115 346.659 67.509 341.754 67.509C333.344 67.509 324.935 67.509 316.525 67.509C313.722 67.509 310.218 67.509 307.415 68.0065C303.911 69.0015 299.706 69.0015 296.202 69.0015C287.792 68.504 279.382 69.9965 271.674 71.9865C259.76 74.4739 248.547 74.4739 236.634 72.9814C230.326 71.9865 224.019 70.9915 217.712 70.9915C203.696 70.9915 188.979 69.499 174.262 72.4839C170.758 72.9814 166.553 72.4839 163.049 72.4839C159.545 72.4839 156.041 72.484 152.537 72.9814C148.332 73.9764 143.427 73.9764 139.222 73.9764C115.395 73.9764 91.5675 73.9764 67.7402 73.9764C62.1338 73.9764 56.5274 73.9764 50.9209 71.9865C47.4169 70.9915 43.9129 70.494 39.7081 70.494C14.4792 69.499 -11.4504 70.9915 -35.9785 68.504Z" fill="#510C76"/>
<path d="M-35.9785 68.6657C-11.4549 71.1794 14.4701 69.6712 38.9937 70.1739C42.4971 70.1739 46.7011 70.6767 50.2045 71.6821C55.8099 73.1904 61.4153 73.6931 67.0207 73.6931C90.8436 73.6931 114.667 73.6931 138.49 73.6931C142.694 73.6931 147.598 73.6931 151.802 72.6876C155.306 72.1849 158.809 72.1849 162.312 72.1849C165.816 72.1849 170.02 72.6876 173.523 72.1849C187.537 69.6712 202.251 71.1794 216.965 70.6767C223.271 70.6767 229.577 71.6821 235.883 72.6876C247.795 74.1958 259.006 74.1958 270.917 71.6821C278.624 70.1739 287.033 68.6657 295.441 68.6657C298.944 68.6657 303.148 68.6657 306.652 67.6602C309.454 67.1575 312.958 67.1575 315.76 67.1575C324.168 67.1575 332.576 67.1575 340.985 67.1575C345.889 67.1575 350.794 66.6547 355.699 68.163C356.399 68.163 357.1 68.6657 357.801 68.6657C371.814 68.1629 385.127 71.1794 398.44 70.1739C408.95 69.6712 419.46 68.6657 429.97 67.6602C434.174 67.1575 439.079 67.1575 443.283 67.1575C448.188 67.1575 453.093 67.1575 457.297 65.1465C460.8 63.6383 464.303 63.6383 468.507 63.6383C485.324 63.6383 502.84 63.6383 519.657 63.6383C523.861 63.6383 528.765 64.141 532.269 61.1246C534.371 59.6164 537.874 60.1191 541.378 60.1191C557.493 60.1191 574.309 60.1191 590.425 60.1191C624.758 60.1191 659.792 60.1191 694.125 60.1191C699.73 60.1191 705.335 60.6218 710.941 61.1246C720.05 62.6328 729.859 62.1301 738.968 61.1246C743.873 60.6218 748.777 60.1191 753.682 60.1191C796.423 60.1191 838.464 60.1191 881.205 60.1191C886.81 60.1191 892.416 60.1191 898.021 59.1136C900.123 58.6109 903.626 58.6109 905.728 58.6109C914.137 59.1136 922.545 57.1027 930.252 55.0917C932.354 54.589 934.456 53.5835 936.558 53.5835C949.17 54.0862 961.783 51.0698 975.095 51.5725C978.599 51.5725 982.803 51.5725 986.306 51.5725C995.415 52.0753 1004.52 50.567 1012.93 48.0533C1018.54 46.5451 1024.84 45.0369 1030.45 45.0369C1040.96 45.0369 1050.77 44.0314 1061.28 46.0424C1064.08 46.5451 1066.18 46.5451 1068.99 46.5451C1076.69 46.5451 1085.1 46.5451 1092.81 46.5451C1103.32 46.5451 1113.13 46.0424 1123.64 48.0533C1127.14 48.5561 1131.35 48.0533 1134.85 48.5561C1141.86 48.5561 1149.56 48.0533 1156.57 50.0643C1158.67 50.567 1162.18 50.567 1164.28 50.567C1183.9 50.567 1202.81 50.567 1222.43 50.567C1224.54 50.567 1227.34 51.0698 1229.44 50.567C1239.25 48.5561 1249.76 49.0588 1260.27 49.0588C1274.98 49.0588 1289 48.0533 1303.01 45.5396C1308.62 44.5342 1314.22 44.0314 1319.83 44.0314C1331.74 44.0314 1344.35 43.5287 1355.56 46.5451C1358.36 47.0479 1361.87 47.0479 1364.67 47.0479C1375.88 47.0479 1387.79 47.0479 1399 47.0479C1404.61 47.0479 1410.21 47.0479 1415.82 48.0533C1419.32 48.5561 1423.53 48.5561 1427.03 48.0533C1432.64 47.0479 1438.24 47.0479 1443.85 47.0479C1472.57 47.0479 1501.3 47.0479 1530.73 47.0479C1541.24 47.0479 1551.05 47.5506 1561.56 45.5396C1563.66 45.0369 1567.17 45.5396 1569.27 45.5396C1584.68 45.5396 1599.4 45.5396 1614.81 45.5396C1619.72 45.5396 1624.62 45.5396 1629.53 46.5451C1632.33 47.0479 1635.83 47.0479 1638.63 47.0479C1651.95 47.0479 1665.26 47.0479 1678.57 47.0479C1686.28 47.0479 1694.69 47.0479 1702.4 48.0533C1710.8 49.0588 1720.61 48.5561 1729.02 48.5561V117.431C1716.41 116.929 1703.8 117.431 1691.19 115.923C1679.27 114.415 1667.36 115.421 1654.75 114.415C1640.74 113.41 1626.02 113.912 1612.01 112.907C1600.8 111.901 1589.59 109.89 1578.38 110.896C1576.97 110.896 1575.57 110.393 1574.17 110.393C1564.36 108.885 1554.55 108.885 1544.74 109.89C1537.74 110.393 1531.43 110.896 1524.42 110.896C1513.91 110.896 1504.1 110.896 1493.59 110.896C1483.79 110.896 1474.68 110.393 1464.87 111.399C1451.55 112.907 1437.54 112.404 1424.23 112.907C1421.43 112.907 1418.62 112.907 1416.52 113.41C1410.92 114.918 1405.31 114.415 1399.7 114.415C1373.78 114.415 1347.15 114.415 1321.23 114.415C1315.62 114.415 1310.72 113.912 1305.11 113.41C1299.51 112.404 1292.5 112.404 1286.9 113.41C1278.49 114.415 1270.08 114.918 1261.67 114.918C1228.74 114.918 1196.51 114.918 1163.58 114.918C1159.37 114.918 1155.17 114.415 1150.96 115.923C1141.16 118.94 1130.65 118.94 1120.14 119.945C1107.52 120.951 1094.21 118.94 1081.6 121.453C1079.5 121.956 1077.39 120.951 1075.29 120.951C1073.19 120.448 1071.79 120.448 1069.69 120.951C1063.38 118.437 1057.07 115.421 1050.07 112.907C1047.26 111.901 1043.76 110.896 1040.96 109.89C1033.25 106.371 1026.95 108.885 1021.34 112.907C1017.14 115.923 1012.93 118.94 1008.73 121.956C991.912 120.951 975.095 119.442 957.578 119.945C944.266 120.448 930.953 118.94 917.64 121.453C915.538 121.956 913.436 120.951 911.334 120.951C900.824 119.442 890.314 118.437 879.804 118.437C876.3 118.437 872.797 118.437 869.293 118.437C862.287 118.437 855.28 118.437 848.974 120.448C846.171 120.951 844.069 121.453 841.266 121.453C819.545 122.459 797.825 119.945 776.804 119.945C776.104 119.945 775.403 119.945 774.702 119.442C769.798 117.934 764.893 118.437 759.988 118.437C720.75 118.437 680.812 118.437 641.574 118.437C637.37 118.437 632.465 117.934 628.261 117.431C617.05 116.426 605.84 114.918 594.629 114.918C554.69 114.918 514.752 114.918 474.813 114.918C469.208 114.918 463.603 115.421 457.997 116.426C450.29 117.934 442.582 118.94 434.174 118.437C430.671 118.437 426.467 118.94 422.964 119.442C414.555 120.448 406.147 121.956 397.039 121.956C394.236 121.956 391.433 121.956 389.331 122.459C385.127 123.464 380.222 123.464 376.018 123.464C347.991 123.464 319.964 123.464 291.937 123.464C285.631 123.464 279.325 122.962 273.72 123.967C264.611 125.475 254.802 124.973 245.693 124.973C237.985 124.973 230.278 124.973 222.571 124.973C219.067 124.973 215.564 124.973 212.761 125.978C209.258 126.984 205.754 126.984 202.952 126.984C198.748 126.984 193.843 126.481 189.639 127.989C188.237 128.492 186.836 128.492 185.435 127.989C178.428 126.481 171.421 126.984 163.714 126.984C136.388 126.984 109.061 126.984 81.7349 126.984C76.1295 126.984 71.2247 125.978 66.32 126.481C59.3133 127.486 53.0072 126.984 46.0004 126.984C43.1977 126.984 39.6944 126.984 36.8917 127.486C32.6876 128.492 28.4836 128.492 24.2795 128.492C15.1708 128.492 6.06197 127.989 -3.0468 128.995C-13.5569 130 -24.067 130 -34.5772 130V68.6657H-35.9785Z" fill="#003DA7"/>
<path d="M-35.9785 128.927C-25.4729 128.927 -14.9672 128.927 -4.46154 127.932C4.64337 126.937 13.7483 127.434 22.8532 127.434C27.0554 127.434 31.2577 127.434 35.46 126.439C38.2615 125.941 41.7634 125.941 44.5649 125.941C51.5686 125.444 57.872 125.941 64.8758 125.444C69.7784 124.946 75.3815 125.941 80.2841 125.941C107.599 125.941 134.914 125.941 162.228 125.941C169.232 125.941 176.936 125.444 183.94 126.937C185.341 127.434 186.741 126.937 188.142 126.937C192.344 125.941 197.247 125.941 201.449 125.941C204.951 125.941 208.453 125.941 211.255 124.946C214.757 123.951 218.258 123.951 221.06 123.951C228.764 123.951 236.468 123.951 244.172 123.951C253.277 123.951 263.083 123.951 272.187 122.956C277.791 121.961 284.094 122.459 290.397 122.459C318.412 122.459 346.427 122.459 374.443 122.459C378.645 122.459 383.547 122.459 387.75 121.463C389.851 120.966 393.353 120.966 395.454 120.966C404.559 121.463 412.963 119.971 421.368 118.478C424.87 117.98 429.072 117.483 432.574 117.483C440.978 117.98 448.683 116.985 456.387 115.493C461.99 114.498 467.593 114 473.196 114C513.117 114 553.039 114 592.96 114C604.166 114 615.372 115.493 626.578 116.488C630.781 116.985 635.683 117.483 639.886 117.483C679.107 117.483 719.028 117.483 758.249 117.483C763.152 117.483 768.055 116.985 772.957 118.478C773.658 118.478 774.358 118.976 775.058 118.976C796.77 118.976 817.781 121.463 839.493 120.468C842.295 120.468 845.096 119.971 847.197 119.473C853.501 117.483 860.504 117.483 867.508 117.483C871.01 117.483 874.512 117.483 878.014 117.483C888.519 116.985 899.025 117.98 909.531 119.971C911.632 120.468 914.433 120.966 915.834 120.468C929.141 117.98 942.449 119.473 955.756 118.976C972.565 118.478 990.074 119.473 1006.88 120.966C993.576 130.917 979.569 140.868 966.261 150.82C959.258 156.293 951.553 161.766 944.55 167.239C943.149 168.234 941.748 169.727 938.947 170.224C934.744 168.732 930.542 168.732 926.34 169.727C918.636 171.22 910.932 170.722 903.928 170.722C896.224 170.722 887.819 170.224 880.115 171.22C869.609 172.712 859.104 172.215 848.598 172.712C842.995 172.712 836.692 172.215 831.789 173.21C824.085 174.205 817.081 174.205 809.377 174.205C795.369 174.205 781.362 174.205 767.354 174.205C762.452 174.205 757.549 174.205 753.347 176.693C750.545 178.185 747.043 177.688 743.541 177.688C725.332 177.688 707.122 177.688 688.912 177.688C686.11 177.688 682.609 177.688 679.807 177.19C676.305 176.693 673.504 177.19 670.002 177.19C658.095 178.185 645.489 178.185 633.582 177.19C619.575 176.195 604.867 174.205 590.859 174.205C589.458 174.205 588.058 174.205 586.657 174.205C578.252 172.215 569.848 173.21 562.144 172.712C553.039 172.712 543.934 173.21 534.829 172.215C525.724 171.22 516.619 171.22 507.514 171.22C490.705 171.22 473.896 171.22 457.087 171.22C454.286 171.22 451.484 170.722 449.383 171.22C436.776 173.21 423.469 172.712 410.862 172.712C400.357 172.712 390.551 173.707 380.746 175.2C367.439 177.19 353.431 177.688 340.124 179.678C338.023 180.176 335.922 180.176 333.821 180.673C331.72 181.171 330.319 181.171 328.218 180.176C318.412 176.693 307.907 176.195 297.401 176.195C293.199 176.195 288.997 174.702 284.794 175.2C272.187 176.693 259.581 175.698 247.674 176.195C244.172 176.195 239.97 175.698 236.468 176.693C227.363 178.683 218.258 177.688 209.154 178.185C200.749 178.683 192.344 176.693 184.64 176.693C166.431 176.693 148.221 176.693 130.011 176.693C127.209 176.693 123.708 176.693 120.906 177.19C116.003 178.185 110.4 178.185 104.797 178.185C92.8909 178.185 80.9845 178.683 69.7785 176.693C50.8683 176.693 31.9581 174.702 13.0479 177.688C11.6471 177.688 10.2464 177.688 8.84563 177.688C-5.86229 177.688 -21.2706 177.688 -35.2781 179.678L-35.9785 128.927Z" fill="#510C76"/>
<path d="M1730.04 190.315V312L1725.84 309.997C1719.53 307.493 1713.22 304.989 1706.92 302.486C1677.48 289.466 1647.35 277.447 1618.62 263.927C1615.11 262.425 1611.61 260.922 1607.41 259.921C1600.4 257.417 1593.39 257.417 1585.68 260.421C1569.56 267.432 1551.34 272.44 1534.52 277.948C1528.22 279.951 1521.91 279.951 1516.3 277.447C1506.49 273.441 1498.08 267.933 1491.07 261.423C1489.67 259.921 1488.27 258.418 1486.87 257.417C1475.66 248.403 1474.26 248.403 1458.14 252.409C1438.52 257.918 1418.89 264.428 1399.97 270.437C1394.37 271.939 1390.86 272.44 1385.26 270.437C1374.04 266.431 1362.83 263.927 1351.62 260.421C1348.81 259.42 1346.01 259.42 1342.51 259.921C1340.4 260.421 1338.3 260.922 1336.2 261.423C1316.58 266.931 1296.96 272.941 1277.33 279.45C1273.83 280.953 1270.33 282.455 1266.82 283.957C1257.01 288.464 1247.2 292.47 1236.69 294.974C1233.88 295.475 1232.48 294.974 1231.08 293.472C1229.68 291.469 1228.98 289.466 1227.58 287.463C1224.07 279.45 1220.57 271.438 1216.36 263.426C1214.26 259.42 1212.16 255.915 1209.36 252.409C1200.95 240.391 1193.24 227.872 1182.73 216.354C1180.62 213.851 1177.82 211.347 1175.72 209.344C1168.71 203.335 1159.6 201.332 1149.09 203.335C1144.18 204.336 1139.98 205.838 1135.07 206.84C1130.17 208.342 1124.56 209.844 1118.96 210.846C1116.15 211.347 1114.05 210.345 1113.35 208.843C1110.55 199.328 1104.94 190.315 1104.94 180.299C1113.35 180.8 1121.76 181.301 1129.47 182.303C1134.37 182.803 1139.28 183.304 1144.18 182.303C1148.39 181.802 1152.59 181.802 1156.8 182.303C1168.01 184.306 1179.22 184.806 1190.44 184.306C1196.74 184.306 1203.05 184.306 1210.06 184.306C1215.66 184.306 1220.57 184.306 1225.48 182.803C1232.48 181.301 1239.49 180.8 1246.5 180.8C1271.03 181.301 1295.55 180.8 1320.08 181.802C1346.71 182.803 1374.04 182.303 1400.67 182.303C1411.89 182.303 1422.4 183.805 1432.91 186.809C1444.12 190.315 1454.63 190.815 1466.55 189.313C1474.96 188.312 1482.66 186.309 1491.07 188.312C1493.18 188.812 1495.28 188.312 1498.08 188.312C1507.19 188.812 1517 188.312 1526.11 189.313C1531.02 189.814 1535.92 189.814 1540.83 189.313C1546.44 188.812 1552.04 188.312 1557.65 188.312C1564.66 188.312 1570.96 188.312 1577.27 185.808C1578.67 185.307 1580.78 184.806 1582.88 184.806C1591.29 184.806 1600.4 182.803 1608.81 184.306C1611.61 184.806 1615.11 184.806 1617.92 184.306C1624.22 183.304 1629.83 183.304 1636.14 183.304C1640.34 183.304 1644.55 182.803 1648.05 181.301C1652.26 179.799 1655.76 179.799 1659.96 180.299C1671.18 181.802 1682.39 183.304 1693.6 184.306C1706.92 187.811 1718.83 188.812 1730.04 190.315Z" fill="#003DA7"/>
<path d="M587.083 211.148C562.58 220.226 544.379 234.348 528.977 250.487C518.476 261.583 509.375 274.191 500.274 285.791C498.174 288.817 495.374 291.843 491.873 294.365C489.773 295.374 487.673 295.878 485.573 294.365C483.473 292.852 480.672 291.843 478.572 290.33C468.771 284.278 458.97 278.226 449.169 272.174C441.468 267.635 434.468 262.591 427.467 258.052C423.967 256.035 421.166 253.513 417.666 250.991C407.165 242.922 393.164 242.922 382.663 250.487C363.061 264.609 346.259 280.243 329.457 296.383C325.957 299.913 322.457 302.939 318.956 305.965C315.456 308.991 311.256 310 305.655 308.487C297.954 306.47 290.254 303.948 283.253 300.922C274.852 297.391 265.751 294.365 256.65 291.339C235.648 284.783 213.946 278.226 194.344 269.652C187.343 267.13 181.743 263.6 176.842 259.565C164.241 249.478 152.34 238.887 141.839 227.287C136.939 223.252 132.038 219.722 125.037 218.713C118.037 217.704 112.436 218.713 107.536 222.243C102.635 225.774 97.7346 228.8 92.8342 232.835C84.4333 239.391 76.0325 245.948 68.3317 253.009C59.2309 261.078 51.5301 269.148 43.1293 277.217C42.4292 277.722 41.7291 278.73 41.0291 279.235C31.9282 288.313 21.4271 295.878 6.02562 299.409C-5.87555 302.435 -17.7767 305.461 -28.9778 308.991L-35.9785 310V201.061C-33.8783 201.061 -30.378 201.061 -28.9778 200.557C-19.1769 197.53 -7.97576 197.53 2.52527 197.53C9.52596 197.53 17.2267 197.53 24.2274 197.53C41.7291 197.026 59.2309 197.53 76.7326 196.522C99.8349 195.513 122.937 195.009 146.039 196.017C154.44 196.522 163.541 196.522 171.942 195.513C182.443 194 192.944 194.504 203.445 194C211.846 194 219.547 195.009 226.547 198.035C231.448 200.052 236.348 201.061 241.949 201.061C246.849 200.557 251.05 201.565 255.25 202.574C263.651 204.591 272.052 205.096 281.153 204.591C292.354 204.087 303.555 204.087 315.456 204.087C321.757 204.087 327.357 204.591 333.658 205.6C339.958 206.609 346.259 208.122 352.56 207.113C359.56 206.104 367.261 206.104 374.262 206.104C388.963 206.609 402.965 205.096 416.966 204.087C423.267 203.583 430.267 203.583 435.868 202.574C444.969 200.557 452.67 202.574 458.97 206.609C464.571 210.139 471.571 211.652 478.572 211.652C493.974 211.652 509.375 211.652 525.477 211.652C527.577 211.652 530.377 211.652 532.477 211.148C548.579 209.13 563.981 209.635 580.082 210.139C582.182 209.13 584.983 209.635 587.083 211.148Z" fill="#003DA7"/>
<path d="M1070.21 119.881C1072.31 119.373 1073.72 119.373 1075.82 119.881C1077.92 120.389 1080.73 120.896 1082.13 120.389C1094.75 117.849 1108.08 119.881 1120.7 118.865C1131.22 118.357 1141.73 118.357 1151.55 114.802C1155.76 113.279 1159.96 113.786 1164.17 113.786C1197.13 113.786 1229.38 113.786 1262.34 113.786C1270.76 113.786 1279.17 113.786 1287.58 112.263C1293.19 111.247 1299.5 111.755 1305.82 112.263C1311.42 112.771 1316.33 113.279 1321.94 113.279C1347.89 113.279 1374.53 113.279 1400.48 113.279C1406.09 113.279 1411.7 113.786 1417.31 112.263C1419.41 111.755 1422.21 111.755 1425.02 111.755C1438.34 111.247 1452.37 112.263 1465.69 110.231C1474.81 109.216 1484.62 109.724 1494.44 109.724C1504.96 109.724 1514.77 109.724 1525.29 109.724C1532.3 109.724 1538.61 109.216 1545.63 108.708C1555.44 107.692 1565.26 107.692 1575.08 109.216C1576.48 109.216 1577.88 109.724 1579.28 109.724C1590.5 109.216 1601.72 110.739 1612.94 111.755C1627.67 113.279 1641.69 112.263 1655.72 113.279C1667.64 114.294 1680.26 113.786 1692.18 114.802C1704.8 116.326 1718.12 115.818 1730.04 116.326V163.048C1725.84 162.541 1720.93 161.525 1717.42 161.017C1709.01 158.986 1700.59 157.97 1691.48 157.97C1683.76 157.97 1675.35 158.478 1667.64 157.462C1656.42 155.938 1645.9 156.446 1634.68 156.446C1626.27 156.446 1617.85 156.446 1609.44 156.446C1602.42 156.446 1596.11 156.954 1589.1 157.462C1582.09 158.478 1575.08 158.986 1568.07 160.509C1564.56 161.017 1561.05 161.017 1558.25 161.017C1542.12 161.017 1525.99 161.017 1510.57 161.017C1507.06 161.017 1503.55 161.017 1500.05 160.509C1495.84 160.001 1491.63 159.493 1487.43 159.493C1477.61 159.493 1467.79 159.493 1457.98 159.493C1455.17 159.493 1451.67 159.493 1448.86 160.001C1437.64 162.033 1426.42 161.525 1415.2 160.001C1406.09 158.986 1396.97 157.97 1387.86 157.97C1373.83 157.97 1359.81 156.446 1345.78 159.493C1343.68 160.001 1341.58 159.493 1338.77 159.493C1330.36 160.001 1321.94 158.478 1314.23 157.97C1304.41 157.462 1294.6 156.446 1284.78 154.923C1282.68 154.415 1281.27 154.415 1279.17 154.415C1267.95 154.415 1257.43 154.415 1246.21 154.415C1241.3 154.415 1237.1 155.431 1234.99 158.986C1230.79 165.08 1223.07 166.603 1215.36 167.619C1206.95 168.127 1197.83 168.127 1189.42 167.619C1182.4 167.111 1175.39 166.603 1167.68 166.603C1164.87 166.603 1162.07 167.111 1159.96 166.096C1152.25 164.064 1143.84 165.08 1136.12 164.572C1133.32 164.572 1129.81 164.572 1127.01 164.064C1118.59 162.541 1109.48 163.048 1101.06 163.048C1098.96 162.033 1098.96 160.001 1098.96 158.478C1096.16 147.305 1089.14 136.64 1081.43 126.991C1078.63 124.451 1073.02 123.436 1070.21 119.881Z" fill="#510C76"/>
<path d="M587.487 211.501C585.385 210.002 583.284 209.503 580.481 209.503C564.369 209.003 548.958 208.504 532.846 210.502C530.744 211.001 528.643 211.001 525.841 211.001C510.429 211.001 495.018 211.001 478.906 211.001C471.2 211.001 464.895 209.503 459.291 206.006C452.286 202.01 445.281 200.013 436.174 202.01C429.869 203.509 423.564 203.009 417.26 203.509C403.249 204.508 388.538 206.006 374.528 205.507C367.523 205.507 359.817 205.507 352.812 206.506C346.507 207.505 340.202 206.006 333.897 205.007C327.593 204.008 321.989 203.509 315.684 203.509C304.476 203.509 292.567 203.509 281.358 204.008C272.251 204.008 263.845 203.509 255.439 202.01C251.236 201.012 246.332 200.512 242.129 200.512C236.525 201.012 231.621 200.013 226.717 197.515C219.712 194.518 212.007 193.519 203.6 193.519C193.092 194.019 182.585 193.519 172.077 195.018C163.67 196.017 154.564 196.017 146.157 195.517C123.04 194.518 99.9229 195.018 76.8056 196.017C59.2926 197.016 41.7795 196.516 24.2664 197.016C17.2612 197.016 9.55546 197.016 2.55023 197.016C-7.95761 197.016 -18.4654 197.016 -28.9733 200.013C-30.3743 200.512 -33.8769 200.512 -35.9785 200.512L-35.9785 180.034C-21.9681 177.536 -5.85604 178.036 8.15441 178.036C9.55546 178.036 10.9565 178.036 12.3575 178.036C31.2717 175.538 50.1858 177.037 69.0999 176.537C81.0088 178.535 92.2171 178.036 104.126 178.036C109.73 178.036 114.634 178.036 120.238 177.037C123.04 176.537 126.543 176.537 129.345 176.537C147.558 176.537 165.772 176.537 183.986 176.537C192.392 176.537 200.098 178.535 208.504 178.036C217.611 177.536 226.717 178.535 235.824 176.537C239.327 176.038 243.53 176.537 247.033 176.038C259.642 175.538 272.251 176.537 284.16 175.039C288.363 174.539 292.567 176.038 296.77 176.038C307.278 176.038 317.785 176.537 327.593 180.034C328.994 180.533 331.095 180.533 333.197 180.533C335.299 180.034 337.4 180.034 339.502 179.534C352.812 177.536 366.122 177.037 380.132 175.039C389.939 173.54 400.447 172.541 410.254 172.541C422.864 172.541 436.174 173.54 448.783 171.043C451.585 170.543 454.387 171.043 456.489 171.043C473.301 171.043 490.114 171.043 506.927 171.043C516.033 171.043 525.14 171.043 534.247 172.042C543.354 173.041 552.461 172.541 561.567 172.541C569.974 172.541 578.38 172.042 586.086 174.04C587.487 174.539 588.888 174.04 590.289 174.04C605 174.04 619.01 176.038 633.021 177.037C644.93 178.036 657.539 178.036 669.448 177.037C672.95 176.537 675.752 176.537 679.255 177.037C682.057 177.536 685.56 177.536 688.362 177.536C706.576 177.536 724.789 177.536 743.003 177.536C746.505 177.536 750.008 178.036 752.81 176.537C757.013 174.04 761.917 174.04 766.82 174.04C780.831 174.04 794.841 174.04 808.852 174.04C816.558 174.04 824.263 174.04 831.269 173.041C836.873 172.042 842.477 172.541 848.081 172.541C858.589 172.541 869.097 172.541 879.605 171.043C887.31 170.044 895.717 170.543 903.422 170.543C911.128 170.543 918.834 171.043 925.839 169.545C930.042 168.546 934.245 169.045 938.449 170.044C937.048 171.542 935.646 173.041 934.245 174.539C929.342 178.535 925.139 183.53 922.337 188.525C921.636 189.524 920.935 190.023 920.235 191.022C905.524 187.026 890.112 189.524 875.402 191.022C864.894 192.021 854.386 193.519 843.878 193.519C834.071 193.519 824.263 194.019 814.456 194.019C808.151 194.019 802.547 194.518 796.943 196.516C789.938 198.514 782.232 199.513 774.526 199.014C757.013 198.514 738.8 199.513 721.286 200.512C717.083 200.512 712.88 201.012 709.378 202.51C700.971 206.506 691.164 207.505 681.357 207.505C673.651 207.505 665.945 207.005 658.239 207.005C653.336 207.005 649.133 207.505 645.63 209.503C642.127 211.501 637.224 212 633.021 212C628.117 212 623.213 212 618.31 211.001C612.705 210.502 607.101 209.503 601.497 211.501C597.294 212 592.39 210.002 587.487 211.501Z" fill="#FA4913"/>
<path d="M602.404 212.863C608.007 210.845 613.611 211.349 619.214 212.358C624.117 212.863 629.019 212.863 633.922 213.367C638.825 213.367 643.027 212.863 646.529 210.845C650.031 208.827 654.934 208.323 659.136 208.323C666.841 208.323 674.545 208.827 682.25 208.827C692.055 208.827 701.861 208.323 710.265 203.782C713.767 202.269 717.97 201.764 722.172 201.764C739.682 201.26 757.892 200.251 775.402 200.251C783.107 200.251 790.811 199.746 797.815 197.729C803.418 196.215 809.021 195.206 815.325 195.206C825.13 195.206 834.936 194.702 844.742 194.702C855.247 194.702 865.753 193.693 876.259 192.179C890.968 190.666 906.377 188.144 921.085 192.179C917.583 198.233 911.98 203.278 905.676 208.323C883.964 225.475 860.851 242.627 837.738 258.77C835.636 260.284 832.835 262.302 830.033 263.815C820.228 269.869 819.527 270.373 808.321 266.337C802.718 264.319 797.115 262.302 790.811 260.284C788.009 259.275 784.507 258.266 781.706 257.257C774.001 255.743 768.398 256.752 762.095 260.788C752.99 267.346 743.184 273.4 734.079 279.958C730.577 282.481 727.075 282.481 722.873 280.967C710.265 276.427 696.958 271.887 684.351 267.346C676.646 264.824 669.642 262.302 661.938 259.275C654.234 256.248 647.23 252.212 643.027 246.663C636.724 238.087 627.619 230.52 619.214 222.448C616.412 219.926 612.91 217.908 608.708 215.89C608.007 215.385 605.206 213.872 602.404 212.863Z" fill="#003DA7"/>
<path d="M1100.85 163.404C1109.27 163.404 1118.39 162.91 1126.81 164.393C1129.61 164.887 1133.12 164.887 1135.93 164.887C1143.64 164.887 1152.06 164.393 1159.77 166.37C1161.88 166.864 1165.39 166.37 1167.49 166.864C1174.5 166.864 1181.52 167.359 1189.23 167.853C1197.65 168.842 1206.77 168.842 1215.19 167.853C1222.9 167.359 1230.62 165.381 1234.83 159.449C1236.93 155.989 1241.14 155 1246.05 155C1257.27 155 1267.8 155 1279.02 155C1281.12 155 1282.53 155 1284.63 155.494C1294.45 156.977 1304.27 157.966 1314.09 158.46C1322.51 158.955 1330.22 160.438 1338.64 159.943C1340.75 159.943 1343.55 159.943 1345.66 159.943C1359.68 157.472 1373.71 158.46 1387.74 158.46C1396.86 158.46 1405.98 159.449 1415.1 160.438C1426.32 161.921 1437.54 162.415 1448.77 160.438C1451.57 159.943 1455.08 159.943 1457.89 159.943C1467.71 159.943 1477.53 159.943 1487.35 159.943C1491.55 159.943 1495.76 159.943 1499.97 160.932C1503.48 161.427 1506.99 161.427 1510.49 161.427C1526.63 161.427 1542.76 161.427 1558.19 161.427C1561.7 161.427 1565.21 161.427 1568.01 160.932C1575.03 159.449 1582.04 158.46 1589.05 157.966C1596.07 156.977 1602.38 156.977 1609.4 156.977C1617.81 156.977 1626.23 156.977 1634.65 156.977C1645.87 156.977 1656.39 156.483 1667.62 157.966C1675.33 158.955 1683.75 158.46 1691.46 158.46C1700.58 158.46 1709 159.449 1717.42 161.427C1721.63 162.415 1726.54 162.91 1730.04 163.404V189.604C1718.82 188.121 1706.9 187.133 1695.67 186.144C1684.45 185.155 1673.23 183.672 1662 182.189C1657.8 181.695 1653.59 181.695 1650.08 183.178C1646.57 184.661 1642.36 184.661 1638.15 185.155C1631.84 185.155 1626.23 185.65 1619.92 186.144C1617.11 186.638 1613.6 186.638 1610.8 186.144C1601.68 184.661 1593.26 186.144 1584.85 186.638C1582.74 186.638 1580.64 186.638 1579.23 187.627C1572.92 190.099 1565.91 190.099 1559.59 190.099C1553.98 190.099 1548.37 190.099 1542.76 191.087C1537.85 191.582 1532.94 191.582 1528.03 191.087C1518.91 190.099 1509.09 190.593 1499.97 190.099C1497.87 190.099 1495.06 190.593 1492.96 190.099C1484.54 188.121 1476.82 190.099 1468.41 191.087C1457.18 192.57 1445.96 192.57 1434.74 188.616C1424.92 185.155 1413.69 184.167 1402.47 184.167C1375.82 184.167 1348.46 184.661 1321.81 183.672C1297.26 182.683 1272.71 182.683 1248.16 182.683C1241.14 182.683 1233.43 182.683 1227.11 184.661C1222.2 185.65 1216.59 186.144 1211.68 186.144C1205.37 186.144 1199.05 186.144 1192.04 186.144C1180.82 186.144 1169.59 185.65 1158.37 184.167C1154.16 183.672 1149.95 183.178 1145.75 184.167C1140.84 185.155 1135.93 184.661 1131.02 184.167C1122.6 183.178 1114.88 182.683 1106.47 182.189C1101.55 174.774 1100.85 169.336 1100.85 163.404Z" fill="#FA4913"/>
<path d="M1730.04 322L1721.63 318.511C1707.62 312.53 1692.9 307.047 1679.59 301.065C1656.46 291.096 1632.63 281.626 1610.21 270.161C1603.2 266.672 1596.89 266.174 1589.18 269.165C1572.36 276.143 1553.44 281.127 1535.22 287.109C1529.61 289.102 1524.01 289.102 1519.1 287.607C1507.89 284.616 1498.08 280.13 1490.37 273.651C1485.46 269.663 1480.56 265.675 1475.65 261.189C1473.55 259.196 1470.75 258.697 1467.94 259.694C1465.84 260.193 1463.74 260.691 1461.64 261.688C1444.12 267.171 1426.6 272.654 1409.78 278.137C1406.97 279.134 1403.47 279.632 1400.67 281.127C1396.46 283.121 1392.26 282.623 1388.05 281.127C1376.84 277.14 1365.63 274.149 1354.41 270.66C1349.51 269.165 1346 269.165 1341.1 270.66C1327.08 275.146 1313.07 279.134 1299.05 283.121C1291.34 285.115 1284.33 288.106 1278.03 291.096C1269.62 294.585 1261.91 298.075 1253.5 301.065C1247.19 303.557 1240.88 304.554 1233.87 305.053C1226.17 305.551 1224.76 304.554 1221.96 299.57C1221.26 298.075 1220.56 296.579 1219.86 295.084C1212.85 280.13 1206.54 264.679 1196.03 250.224C1191.83 244.242 1188.32 238.759 1183.42 232.778C1178.51 226.797 1174.31 221.314 1168 215.831C1164.5 212.84 1160.29 211.843 1155.39 211.843C1150.48 212.342 1146.27 213.339 1142.77 214.834C1134.36 218.323 1125.25 219.818 1115.44 220.815C1106.33 221.314 1106.33 221.314 1104.23 215.831C1104.23 214.834 1103.53 214.335 1103.53 213.339C1100.02 201.376 1095.82 188.915 1092.31 176.952C1089.51 167.481 1087.41 158.509 1083.2 149.537C1079 142.061 1075.49 134.085 1065.68 129.101C1057.97 125.113 1049.56 122.123 1041.15 119.132C1037.65 118.135 1034.85 118.634 1032.04 120.627C1004.71 139.568 978.082 159.506 952.152 179.444C947.247 182.933 943.743 186.921 940.239 191.407C932.53 201.874 923.42 211.843 911.506 220.317C898.191 229.787 885.576 239.756 872.261 249.725C862.45 256.703 851.938 263.682 842.127 270.66C837.922 273.152 833.717 275.146 829.512 277.638C825.307 279.632 820.402 280.13 815.496 277.638C809.189 275.146 802.181 272.654 795.173 270.161C790.968 268.666 786.062 267.171 781.858 266.174C779.755 265.675 778.354 265.675 776.251 266.672C775.55 267.171 774.85 267.669 773.448 268.168C762.235 276.143 748.92 282.623 738.408 291.595C735.605 293.589 734.904 293.588 730.699 292.592C729.297 292.093 727.896 291.595 726.494 291.096C704.769 283.62 683.044 275.644 661.32 268.168C650.107 264.18 640.996 259.196 634.689 251.22C628.382 243.245 619.972 235.769 612.263 228.79C610.161 226.797 607.358 225.301 604.555 223.806C597.547 219.818 594.743 219.818 587.035 223.307C570.916 230.784 557.601 240.753 545.687 251.22C542.884 253.713 540.782 255.707 538.679 258.697C532.372 266.174 526.766 273.651 520.458 281.127C516.254 286.112 512.75 291.096 508.545 296.081C506.442 299.071 502.938 301.564 499.434 303.059C492.426 306.548 486.82 306.548 479.812 302.561C476.308 300.567 473.505 299.071 470.001 297.078C462.292 292.093 454.583 287.607 446.874 282.623C434.26 274.648 421.645 267.171 410.432 258.199C405.527 253.713 398.519 253.713 392.212 257.7C390.81 258.697 388.708 259.694 387.306 261.189C380.298 266.672 373.29 272.654 366.282 278.137C354.368 289.102 342.455 300.068 330.541 311.034C324.234 317.016 315.824 319.009 305.312 317.514C296.903 316.517 289.194 313.526 281.485 310.037C271.674 306.05 261.862 302.561 252.051 299.57C232.429 293.589 212.105 287.109 193.184 280.13C185.475 277.14 179.168 274.149 172.861 269.663C162.348 262.685 153.939 255.208 145.529 247.233C139.923 241.75 134.316 236.267 128.71 230.784C124.505 227.295 121.001 226.797 116.096 230.286C109.788 234.273 103.481 238.759 97.8747 243.744C89.4651 250.722 80.3546 257.202 72.6458 264.679C67.7402 269.663 62.8346 274.648 57.2282 279.632C50.921 285.613 44.6137 291.096 37.6057 296.579C32.7001 300.068 27.7945 302.561 21.4873 304.554C6.77041 308.542 -7.24563 313.028 -21.9625 316.517L-35.9785 319.009V309.04L-29.6713 307.545C-17.7577 304.554 -6.54483 301.065 5.36881 298.075C20.7865 294.585 31.2985 287.109 40.4089 278.137C41.1097 277.638 41.8105 276.641 42.5113 276.143C50.9209 268.168 59.3306 260.193 67.7402 252.217C75.449 245.239 83.8586 238.759 92.2683 232.28C97.1739 228.79 102.08 225.301 106.985 221.812C111.891 218.323 118.198 217.326 124.505 218.323C131.513 219.32 136.419 222.809 140.624 226.797C151.136 238.261 163.049 248.728 175.664 258.697C180.569 262.685 186.877 266.174 193.184 268.666C213.507 277.14 234.531 283.62 255.555 290.099C264.666 293.09 273.776 295.582 282.186 299.57C289.194 302.561 296.902 305.053 304.611 307.047C310.218 308.542 314.423 307.545 317.927 304.554C321.431 301.564 324.935 298.075 328.439 295.084C345.258 279.134 362.077 263.682 381.7 249.725C392.212 242.248 406.928 242.248 416.74 250.224C419.543 252.716 423.047 254.71 426.551 257.202C433.559 262.186 441.268 266.672 448.276 271.158C458.087 277.14 467.898 283.121 477.709 289.102C479.812 290.598 482.615 291.595 484.717 293.09C486.82 294.087 488.922 294.087 491.025 293.09C495.229 291.096 497.332 287.607 499.434 284.616C508.545 272.654 516.954 260.691 528.167 249.725C542.884 234.273 561.105 220.815 584.231 211.843C584.932 211.843 588.436 210.846 593.342 210.846C594.743 210.846 596.145 210.846 597.547 211.345H598.247C601.751 211.843 603.854 212.84 603.854 212.84C605.255 213.837 607.358 214.335 608.759 215.332C612.263 217.326 616.468 218.821 619.271 221.812C626.98 229.787 636.792 236.766 643.099 245.738C647.304 251.719 653.611 255.208 662.02 258.199C669.729 260.691 676.737 263.682 684.446 266.174C697.061 270.66 710.376 275.146 722.99 279.632C727.195 281.127 730.699 281.127 734.203 278.635C743.313 272.155 753.826 266.174 762.235 259.694C767.842 255.208 774.149 254.71 781.858 256.205C785.362 256.703 788.165 257.7 790.968 259.196C796.574 261.189 802.181 263.183 808.488 265.177C819.701 269.165 821.102 269.165 830.213 262.685C833.016 261.189 835.119 259.196 837.922 257.7C861.048 241.252 884.175 224.803 905.9 207.856C912.207 202.871 917.112 197.887 921.317 191.905C922.018 190.908 923.42 190.41 923.42 189.413C926.223 183.93 930.428 179.444 935.333 175.457C936.735 173.961 938.136 172.466 939.538 170.97C941.64 170.472 943.042 169.475 945.144 167.98C952.152 162.497 959.161 157.014 966.869 151.531C980.185 141.562 994.201 131.593 1007.52 121.624C1011.72 118.634 1015.93 115.643 1020.13 112.652C1025.74 108.665 1032.04 106.172 1039.75 109.661C1042.56 110.658 1046.06 111.655 1048.86 112.652C1055.17 115.144 1062.18 117.637 1068.49 120.627C1071.29 123.618 1076.9 124.615 1079.7 128.104C1087.41 138.073 1094.42 148.042 1097.22 159.008C1097.92 160.503 1097.92 161.998 1099.32 163.494C1099.32 169.475 1100.02 174.958 1103.53 179.943C1103.53 189.911 1108.43 198.884 1111.94 208.354C1112.64 210.348 1114.74 210.846 1117.54 210.348C1123.15 208.852 1128.05 207.856 1133.66 206.36C1138.57 204.865 1142.77 203.37 1147.68 202.871C1158.19 201.376 1167.3 203.37 1174.31 208.852C1177.11 211.345 1179.21 213.339 1181.31 215.831C1191.83 227.295 1199.54 239.258 1207.95 251.719C1210.05 255.208 1212.85 259.196 1214.95 262.685C1219.16 270.66 1222.66 278.635 1226.17 286.61C1226.87 288.604 1228.27 290.598 1229.67 292.592C1231.07 294.585 1232.47 294.585 1235.28 294.087C1246.49 291.595 1256.3 287.607 1265.41 283.121C1268.92 281.626 1272.42 279.632 1275.92 278.635C1294.84 272.155 1314.47 266.174 1334.79 260.691C1336.89 260.193 1339 259.694 1341.1 259.196C1343.9 258.697 1346.7 258.697 1350.21 259.694C1361.42 263.183 1372.63 266.174 1383.85 269.663C1389.45 271.657 1393.66 271.158 1398.56 269.663C1418.19 263.682 1437.11 257.202 1456.73 251.719C1472.15 247.233 1474.25 247.731 1485.46 256.703C1486.86 257.7 1488.27 259.196 1489.67 260.691C1496.68 267.171 1505.09 272.654 1514.9 276.641C1521.2 279.134 1526.81 279.134 1533.12 277.14C1550.64 271.657 1568.16 266.672 1584.28 259.694C1591.98 256.703 1598.29 256.703 1606 259.196C1609.5 260.193 1613.71 261.688 1617.21 263.183C1645.95 277.14 1676.08 289.102 1705.51 301.564C1711.82 304.056 1718.13 306.548 1724.44 309.04L1728.64 311.034V322H1730.04Z" fill="white"/>
<path fill-rule="evenodd" clip-rule="evenodd" d="M650.991 380.2C650.083 380.2 647.057 380.2 647.057 380.2C640.098 380.2 634.349 385.345 634.349 392.608C634.349 398.359 636.164 405.017 643.426 405.017C650.083 405.017 651.294 399.872 651.294 394.424V381.108C651.294 381.108 651.899 380.2 650.991 380.2ZM850.398 444.361H836.479C826.493 443.15 818.021 439.518 818.021 430.439C818.021 423.781 825.586 418.938 831.637 418.03C831.637 418.03 833.453 417.728 831.637 417.728C829.519 417.425 817.718 416.517 813.785 417.425C813.785 417.425 812.877 417.425 812.574 416.517C812.272 415.609 809.851 409.556 809.548 408.951C809.246 408.043 809.851 407.74 809.851 407.74C818.626 406.53 826.493 401.99 830.125 400.78C832.243 400.477 830.125 399.872 830.125 399.872C818.021 397.753 805.615 389.279 805.615 374.752C805.615 354.172 822.56 344.79 838.9 344.79C846.464 344.79 850.701 346.001 854.634 346.606C854.634 346.606 854.937 346.909 855.542 346.304C855.542 345.093 856.752 341.461 856.752 341.461C858.568 336.316 860.989 333.895 868.856 333.895C870.672 333.895 872.487 333.895 873.698 334.198C873.698 334.198 874.605 333.895 874.605 335.106C874.303 335.408 871.579 346.001 871.579 346.606C871.277 347.817 870.672 346.909 870.672 346.909C869.461 346.001 868.856 345.698 865.83 346.001C864.015 346.001 863.107 347.212 863.107 349.027C863.107 352.054 877.026 356.594 877.026 373.239C877.026 395.635 856.45 400.477 838.597 404.714C838.597 404.714 836.782 405.017 838.597 405.017C850.398 406.227 874.908 409.556 874.908 424.689C874.908 438.005 860.686 442.847 850.398 444.361ZM678.829 408.648C679.737 408.648 681.553 408.648 682.46 408.648C683.368 408.648 683.368 409.556 683.368 409.556C683.368 409.556 683.368 415.609 683.368 416.517C683.368 417.728 682.158 417.425 682.158 417.425C677.316 417.425 654.017 417.425 654.017 417.425C654.017 417.425 653.714 417.425 653.714 416.517C653.412 414.701 652.504 412.885 652.504 411.675C652.201 409.859 651.294 411.675 651.294 411.675C645.544 416.215 639.19 419.544 631.02 419.544C618.009 419.544 607.721 411.07 607.721 397.451C607.721 380.805 618.311 371.423 631.323 371.423L651.596 370.515C651.596 370.515 651.596 370.515 651.596 369.607C651.596 369.305 651.596 367.489 651.596 367.489C651.596 361.739 648.57 359.015 641.913 359.015C633.743 359.015 629.81 362.041 625.876 366.883C625.876 366.883 625.876 367.186 624.968 367.186C624.061 366.883 617.101 364.16 617.101 364.16C617.101 364.16 616.193 364.16 616.798 363.252C617.101 362.344 625.876 341.159 625.876 341.159C625.876 341.159 625.876 340.251 626.179 340.856C627.389 341.159 632.836 342.975 634.046 342.975C634.954 343.277 634.349 344.185 634.349 344.185C634.349 344.185 634.046 345.093 633.441 346.001C633.138 347.817 633.743 346.909 633.743 346.909C639.493 344.79 645.242 343.882 650.689 343.882C667.331 343.882 678.224 350.843 678.224 368.094V406.833C678.527 407.438 678.527 408.648 678.829 408.648ZM680.645 349.935C692.143 346.909 701.524 339.343 706.365 328.75C706.365 328.75 706.365 328.448 707.273 328.448C708.181 328.448 713.93 329.658 714.838 329.658C715.745 329.961 715.14 330.566 715.14 330.566C714.838 334.198 714.232 338.132 714.232 341.159C714.232 341.159 714.232 345.698 714.232 346.304C714.232 347.212 715.14 346.606 715.14 346.606C715.14 346.606 726.639 346.606 726.941 346.606C727.849 346.606 727.244 347.514 727.244 347.514C727.244 347.514 725.428 356.291 725.428 357.199C725.126 358.107 724.521 358.107 724.521 358.107C724.521 358.107 715.745 358.107 714.838 358.107C713.93 358.107 713.93 358.409 713.93 358.409V399.569C713.93 404.411 717.864 405.319 719.982 405.319C722.1 405.319 722.705 405.319 724.218 404.411C724.218 404.411 725.126 403.503 725.126 404.411C725.428 405.319 727.849 411.07 728.152 411.978C728.454 412.28 727.849 412.885 727.849 412.885C718.771 419.544 717.864 419.846 705.457 419.846C691.841 419.846 686.999 413.188 686.999 401.082V358.712C686.999 358.712 686.999 358.409 686.092 358.409C684.881 358.409 680.04 358.409 680.04 358.409C680.04 358.409 679.737 358.409 679.737 357.501C679.737 355.686 679.737 351.751 679.737 350.843C680.342 350.238 680.645 349.935 680.645 349.935ZM880.052 382.016C880.052 359.317 897.905 344.79 921.507 344.79C945.109 344.79 963.567 359.317 963.567 382.016C963.567 405.622 945.109 419.846 921.507 419.846C898.207 419.846 880.052 405.622 880.052 382.016ZM907.285 372.028C907.285 382.621 911.521 408.951 926.651 408.951C934.518 408.951 936.636 400.477 936.636 392.608C936.636 382.016 932.4 355.686 916.968 355.686C907.285 355.686 907.285 366.581 907.285 372.028ZM1046.78 417.425H1010.17C1010.17 417.425 1009.86 417.425 1009.86 417.123C1009.86 416.215 1009.86 410.162 1009.86 409.556C1009.86 408.648 1010.77 408.648 1010.77 408.648C1010.77 408.648 1014.4 408.648 1015.01 408.648C1015.31 408.648 1015.31 408.346 1015.31 408.346V368.397C1015.31 363.857 1011.38 362.344 1007.44 362.344C1002.6 362.344 999.273 364.462 995.641 367.489C995.641 367.489 995.339 367.791 995.339 368.397C995.339 369.305 995.339 408.346 995.339 408.346C995.339 408.346 995.339 408.648 995.641 408.648C996.549 408.648 1000.48 408.648 1000.48 408.648C1000.48 408.648 1000.79 408.648 1000.79 409.556C1000.79 410.464 1000.79 416.517 1000.79 417.123C1000.79 417.425 1000.48 417.425 1000.48 417.425H963.869C963.869 417.425 963.567 417.728 963.567 416.517C963.567 416.215 963.567 409.859 963.567 409.556C963.567 408.648 963.869 408.648 963.869 408.648C963.869 408.648 967.5 408.648 967.803 408.648C968.711 408.648 968.106 408.346 968.106 408.346V361.436C968.106 361.436 968.408 360.528 967.803 360.528C966.593 360.831 963.869 361.739 963.869 361.739C963.869 361.739 963.567 362.041 963.567 361.436C963.567 360.528 963.567 354.778 963.567 353.87C963.567 352.962 963.869 353.567 963.869 353.567L995.036 345.093C995.036 345.093 995.944 344.79 995.944 345.396C995.944 345.698 995.944 354.475 995.944 355.383C995.944 356.594 996.247 355.686 996.247 355.686C1003.81 349.935 1011.07 344.185 1021.06 344.185C1039.82 344.185 1042.54 356.896 1042.54 364.765V407.74C1042.54 407.74 1042.24 408.043 1042.85 408.043C1043.15 408.043 1046.78 408.043 1046.78 408.043C1046.78 408.043 1047.08 408.043 1047.08 408.951C1047.08 409.859 1047.08 415.609 1047.08 415.912C1047.38 418.03 1046.78 417.425 1046.78 417.425ZM1084 345.093L1052.83 353.567C1052.83 353.567 1052.53 353.567 1052.53 354.475C1052.53 354.778 1052.53 360.528 1052.53 361.436C1052.53 362.344 1053.44 361.739 1053.44 361.739C1053.44 361.739 1055.55 361.436 1057.37 360.831C1058.28 360.831 1057.67 361.739 1057.67 362.041C1057.67 362.949 1057.67 408.043 1057.67 408.043C1057.67 408.043 1057.97 408.346 1057.37 408.346C1056.46 408.346 1053.13 408.346 1053.13 408.346C1053.13 408.346 1052.23 408.346 1052.23 409.254C1052.23 410.162 1052.23 415.912 1052.23 416.82C1052.23 417.728 1053.13 417.123 1053.13 417.123C1053.13 417.123 1088.23 417.123 1089.44 417.123C1090.35 417.123 1089.75 416.215 1089.75 416.215C1089.75 416.215 1089.75 410.464 1089.75 409.254C1089.75 408.346 1088.84 408.346 1088.84 408.346C1088.84 408.346 1086.72 408.346 1085.21 408.346C1084.3 408.346 1084.91 408.043 1084.91 408.043C1084.91 408.043 1084.91 346.001 1084.91 345.396C1084.91 344.79 1084 345.093 1084 345.093ZM1073.1 323C1079.16 323 1086.12 324.816 1086.12 332.079C1086.12 340.856 1074.31 344.488 1066.75 344.488C1060.7 344.488 1056.76 341.461 1056.76 335.408C1057.07 328.448 1066.45 323 1073.1 323ZM772.632 380.2C771.725 380.2 769.001 380.2 769.001 380.2C761.437 380.2 756.293 385.345 756.293 392.608C756.293 398.359 758.108 405.017 765.068 405.017C772.027 405.017 773.238 399.872 773.238 394.424V381.108C773.54 381.108 773.54 380.2 772.632 380.2ZM801.076 408.648C801.984 408.648 803.799 408.648 804.102 408.648C805.312 408.648 805.312 409.556 805.312 409.556C805.312 409.556 805.312 415.609 805.312 416.517C805.312 417.728 804.102 417.425 804.102 417.425C798.958 417.425 775.961 417.425 775.961 417.425C775.961 417.425 775.658 417.425 775.053 416.517C774.751 414.701 774.145 412.885 774.145 411.675C773.843 409.859 772.935 411.675 772.935 411.675C766.883 416.215 760.831 419.544 752.661 419.544C739.045 419.544 729.059 411.07 729.059 397.451C729.059 380.805 739.953 371.121 753.267 371.121L772.935 370.818C772.935 370.818 773.238 370.818 773.238 369.91C773.238 369.607 773.238 367.791 773.238 367.791C773.238 362.041 770.212 359.317 763.555 359.317C755.385 359.317 751.451 362.344 747.517 367.186C747.517 367.186 747.215 367.489 746.61 367.186C745.702 367.186 738.44 364.462 738.44 364.462C738.44 364.462 738.137 364.462 738.44 363.554C739.045 362.949 747.215 342.067 747.215 342.067C747.215 342.067 747.215 341.159 748.123 341.764C749.03 342.067 754.78 343.882 755.687 343.882C756.595 344.185 755.99 345.093 755.99 345.093C755.99 345.093 755.99 346.001 755.687 346.909C754.78 348.725 755.99 347.817 755.99 347.817C761.739 345.698 767.488 344.79 772.935 344.79C789.577 344.79 800.471 351.751 800.471 369.002V407.74C800.471 407.438 800.168 408.648 801.076 408.648ZM829.822 363.554C829.822 371.423 834.058 392.911 845.254 392.911C851.003 392.911 853.121 390.187 853.121 383.226C853.121 375.358 848.28 353.87 837.387 353.87C831.94 353.87 829.822 356.594 829.822 363.554ZM841.32 421.057C840.11 422.267 839.202 427.11 839.202 430.136C839.202 433.768 841.018 437.702 845.254 437.702C848.885 437.702 851.003 435.886 851.003 432.557C851.003 425.899 847.07 423.781 842.228 420.754C842.228 420.754 841.623 420.754 841.32 421.057ZM1133.02 380.2C1132.11 380.2 1129.39 380.2 1129.39 380.2C1121.82 380.2 1116.68 385.345 1116.68 392.608C1116.68 398.359 1118.49 405.017 1125.45 405.017C1132.41 405.017 1133.62 399.872 1133.62 394.424V381.108C1133.93 381.108 1133.93 380.2 1133.02 380.2ZM1161.46 408.648C1162.37 408.648 1164.18 408.648 1165.09 408.648C1166 408.648 1166 409.556 1166 409.556C1166 409.556 1166 415.609 1166 416.517C1166 417.728 1164.79 417.425 1164.79 417.425C1159.65 417.425 1136.65 417.425 1136.65 417.425C1136.65 417.425 1136.35 417.425 1135.74 416.517C1135.44 414.701 1134.83 412.885 1134.83 411.675C1134.53 409.859 1133.62 411.675 1133.62 411.675C1127.57 416.215 1121.52 419.544 1113.35 419.544C1099.73 419.544 1089.75 411.07 1089.75 397.451C1089.75 380.805 1100.64 371.121 1113.95 371.121L1133.62 370.818C1133.62 370.818 1133.93 370.818 1133.93 369.91C1133.93 369.607 1133.93 367.791 1133.93 367.791C1133.93 362.041 1130.9 359.317 1124.24 359.317C1116.07 359.317 1112.14 362.344 1108.2 367.186C1108.2 367.186 1107.9 367.489 1107.3 367.186C1106.39 367.186 1099.43 364.462 1099.43 364.462C1099.43 364.462 1098.52 364.462 1099.13 363.554C1099.43 362.646 1107.9 341.461 1107.9 341.461C1107.9 341.461 1107.9 340.553 1108.81 341.159C1109.72 341.461 1115.47 343.277 1116.37 343.277C1117.28 343.58 1117.28 344.488 1117.28 344.488C1117.28 344.488 1116.98 345.396 1116.37 346.304C1115.47 348.12 1116.68 347.212 1116.68 347.212C1122.43 345.093 1128.18 344.185 1133.62 344.185C1150.27 344.185 1161.16 351.146 1161.16 368.397V407.135C1161.16 407.438 1161.16 408.648 1161.46 408.648Z" fill="white"/>
<path fill-rule="evenodd" clip-rule="evenodd" d="M573.937 408.04C573.937 407.135 573.937 372.429 573.937 372.429C573.937 366.394 571.81 360.962 564.818 360.962C556.004 360.962 552.052 366.092 552.052 382.388C552.052 408.342 565.122 409.549 569.682 409.549L573.025 409.247C573.025 409.247 573.937 408.946 573.937 408.04ZM573.633 418.603C566.946 422.526 562.083 425.242 555.7 425.242C538.678 425.242 525 411.36 525 390.537C525 370.317 537.766 350.399 559.651 350.399C563.907 350.399 569.682 350.701 573.633 353.115C573.633 353.115 573.937 353.115 573.937 352.813C573.937 351.908 573.937 340.138 573.937 340.138C573.937 340.138 573.937 339.233 573.025 339.233C572.114 339.233 565.122 339.233 565.122 339.233C565.122 339.233 564.211 339.233 564.211 338.328C564.211 336.517 564.211 332.292 564.211 331.386C564.211 331.085 565.122 330.481 565.122 330.481H605.245C605.245 330.481 606.461 330.481 606.461 331.386C606.461 332.292 605.549 332.292 605.549 332.292C605.549 332.292 602.813 332.292 601.902 332.292C600.99 332.292 600.99 333.197 600.99 333.197C600.99 333.197 600.99 401.099 600.99 402.005C600.99 402.91 601.902 402.306 601.902 402.306L605.549 401.401C605.549 401.401 606.461 401.401 606.461 402.306C606.461 403.212 605.549 403.212 605.549 403.212L574.849 424.639C574.849 424.639 573.937 424.94 573.937 424.337C573.937 423.431 573.937 419.508 573.937 419.206C573.937 417.999 573.633 418.603 573.633 418.603Z" fill="white"/>
</g>
</g>
<defs>
<clipPath id="clip0_408_75">
<rect width="1728" height="701" fill="white"/>
</clipPath>
<clipPath id="clip1_408_75">
<rect width="1765" height="954" fill="white" transform="translate(-37)"/>
</clipPath>
</defs>
</svg>
